<?xml version="1.0" encoding="UTF-8"?>
<svg version="1.1" xmlns="http://www.w3.org/2000/svg" width="32" height="32">
<path d="M0 0 C4.8846525 2.26787438 7.73212562 5.1153475 10 10 C10.75381535 15.5997712 10.77303575 20.33499991 8.375 25.5 C3.80134327 30.3143755 0.6912538 32.25156236 -6 32.5 C-12.6912538 32.25156236 -15.80134327 30.3143755 -20.375 25.5 C-22.77303575 20.33499991 -22.75381535 15.5997712 -22 10 C-17.52212837 0.3553534 -9.85292056 -1.32635469 0 0 Z " fill="#AA0101" transform="translate(22,0)"/>
<path d="M0 0 C0.99 0 1.98 0 3 0 C3.08089542 2.77141717 3.14044062 5.54047819 3.1875 8.3125 C3.22520508 9.49102539 3.22520508 9.49102539 3.26367188 10.69335938 C3.27817383 11.8293457 3.27817383 11.8293457 3.29296875 12.98828125 C3.31653442 14.03302612 3.31653442 14.03302612 3.34057617 15.09887695 C2.892662 17.59916915 2.01549368 18.49755192 0 20 C-2.6875 19.6875 -2.6875 19.6875 -5 19 C-4.505 17.515 -4.505 17.515 -4 16 C-3.01 16 -2.02 16 -1 16 C-0.67 10.72 -0.34 5.44 0 0 Z " fill="#F8EBEB" transform="translate(17,6)"/>
</svg>
